<svg width="772" height="250" viewBox="0 0 772 250" fill="none" xmlns="http://www.w3.org/2000/svg">
<g clip-path="url(#clip0_135_2)">
<rect width="772" height="250" fill="white"/>
<g filter="url(#filter0_d_135_2)">
<path d="M0 0H772V250H0V0Z" fill="#1E73F0"/>
</g>
<path opacity="0.2" d="M311.5 148C314.538 148 317 145.538 317 142.5C317 139.462 314.538 137 311.5 137C308.462 137 306 139.462 306 142.5C306 145.538 308.462 148 311.5 148Z" fill="white"/>
<path opacity="0.2" d="M382.282 116.564C384.095 116.564 385.564 115.095 385.564 113.282C385.564 111.469 384.095 110 382.282 110C380.469 110 379 111.469 379 113.282C379 115.095 380.469 116.564 382.282 116.564Z" fill="white"/>
<path d="M198.009 386.176C116.653 461.862 -89.3267 503.865 -95.656 494.887L74.0844 740.443C93.4275 768.425 131.705 775.597 159.866 756.514L886.466 264.138C914.812 244.929 922.228 206.392 903.02 178.045L677.132 -155.297C627.741 -228.184 667.503 -204.48 603.324 -26.2266C557.329 101.523 387.771 26.2117 314.352 193.309C281.105 268.979 249.468 338.304 198.009 386.176Z" fill="#2384F5"/>
<path opacity="0.4" d="M-65.6945 99.4028C-118.511 59.3888 -164.343 -57.2905 -159.719 -61.9307L-268.859 45.5979C-293.092 69.4724 -293.562 108.413 -269.913 132.866L59.3153 473.28C83.12 497.893 122.361 498.559 146.974 474.754L301.59 325.219C339.33 288.719 329.491 314.51 218.191 295.123C138.425 281.228 165.245 173.892 59.5484 147.931C11.6842 136.175 -32.2875 124.712 -65.6945 99.4028Z" fill="#3391FF"/>
<path d="M534.5 89C556.868 89 575 70.8675 575 48.5C575 26.1325 556.868 8 534.5 8C512.132 8 494 26.1325 494 48.5C494 70.8675 512.132 89 534.5 89Z" fill="#FFBA2E"/>
<g filter="url(#filter1_d_135_2)">
<rect x="44" y="56" width="97" height="68" rx="8" fill="#1E73F0"/>
<rect x="44.25" y="56.25" width="96.5" height="67.5" rx="7.75" stroke="white" stroke-width="0.5"/>
</g>
<path d="M140.499 75.7509C140.499 76.9583 140.303 78.2812 139.913 79.7205C139.523 81.1597 139.147 81.8789 138.785 81.8789C138.499 81.8789 138.356 81.7626 138.356 81.5299C138.356 81.4601 138.385 81.3563 138.442 81.217C139.204 79.5916 139.585 77.8385 139.585 75.9575C139.585 73.0326 138.512 70.6814 136.369 68.9049C134.226 67.1293 131.398 66.2409 127.883 66.2409C123.052 66.2409 118.165 67.5065 113.222 70.0369C117.444 72.7778 119.555 75.7509 119.555 78.9553C119.555 81.6727 118.217 83.99 115.541 85.9062C112.866 87.8225 109.344 89.0009 104.974 89.4418C107.942 90.8364 109.426 92.8581 109.426 95.5078C109.426 97.2747 108.66 99.9592 107.132 103.562C106.122 105.932 105.617 107.792 105.617 109.14C105.617 110.535 106.235 111.714 107.471 112.678C108.707 113.643 110.216 114.125 111.999 114.125C113.839 114.125 115.577 113.639 117.217 112.668C117.59 112.482 117.849 112.39 117.993 112.39C118.22 112.39 118.334 112.482 118.334 112.668C118.334 113.059 117.531 113.513 115.927 114.032C114.322 114.548 112.932 114.808 111.758 114.808C109.004 114.808 106.696 113.918 104.833 112.139C102.97 110.359 102.038 108.156 102.038 105.527C102.038 103.62 103.074 100.259 105.145 95.444C105.663 94.2114 105.922 93.1645 105.922 92.3038C105.922 91.2105 105.367 90.2804 104.261 89.5126C102.443 89.6523 101.406 89.7218 101.151 89.7218C98.3408 89.7218 96.9355 89.431 96.9355 88.8494C96.9355 88.4783 97.6459 88.2921 99.0693 88.2921C100.747 88.2921 102.426 88.5595 104.105 89.0937C107.491 88.6528 110.265 87.3698 112.427 85.2444C114.589 83.1189 115.671 80.6168 115.671 77.7361C115.671 75.4605 114.596 73.2769 112.448 71.1866L112.025 70.7339C105.777 74.5456 99.8735 81.1923 94.313 90.6723C90.9465 96.4128 87.8657 100.549 85.0706 103.082C82.2754 105.616 78.3542 107.904 73.3064 109.949C67.3446 112.319 62.0255 113.505 57.3475 113.505C53.5254 113.505 50.3455 112.79 47.8077 111.362C45.2684 109.934 44 108.151 44 106.013C44 104.829 44.4354 103.807 45.3078 102.947C46.1802 102.088 47.2151 101.658 48.4147 101.658C50.1547 101.658 51.0255 102.448 51.0255 104.03C51.0255 104.821 50.7329 105.495 50.1472 106.053C49.5616 106.612 48.8416 106.891 47.9862 106.891C46.501 106.891 45.7885 106.263 45.8455 105.007C45.8743 104.495 45.8167 104.239 45.6755 104.239C45.2188 104.239 44.9902 104.855 44.9902 106.088C44.9902 108.019 46.1514 109.624 48.4771 110.903C50.8011 112.182 53.7306 112.822 57.2676 112.822C63.5123 112.822 69.1746 110.938 74.2512 107.172C76.4751 105.523 78.3723 103.837 79.9407 102.116C81.6519 100.257 85.3871 95.747 91.1491 88.5868C94.029 85.0534 97.4226 81.5091 101.33 77.9523C105.237 74.3954 108.56 71.8503 111.298 70.3151C106.847 67.2266 100.314 65.6814 91.7001 65.6814C79.6609 65.6814 69.1917 69.2248 60.2919 76.309C52.9888 82.1163 49.3383 87.5872 49.3383 92.7196C49.3383 95.3216 50.3652 97.3889 52.4191 98.9223C54.4729 100.456 57.2537 101.222 60.763 101.222C66.4962 101.222 72.4238 98.9787 78.5423 94.4896C84.6613 90.0013 87.7218 85.6411 87.7218 81.408C87.7218 78.0365 85.5966 76.3498 81.3471 76.3498C77.0965 76.3498 72.5389 78.2891 67.6755 82.1675C62.8121 86.046 60.3798 89.6875 60.3798 93.0894C60.3798 93.9288 60.7214 94.6506 61.4068 95.2556C62.091 95.8615 62.8894 96.1636 63.8033 96.1636C64.2877 96.1636 64.5302 96.2691 64.5302 96.4787C64.5302 96.6649 64.26 96.7578 63.7196 96.7578C62.3538 96.7578 61.2016 96.2517 60.2642 95.2391C59.3252 94.2261 58.8562 92.9857 58.8562 91.5182C58.8562 87.8858 61.2959 84.3464 66.1748 80.9002C71.0537 77.454 76.061 75.7309 81.1973 75.7309C86.105 75.7309 88.5585 77.579 88.5585 81.2743C88.5585 85.7839 85.4324 90.3398 79.1813 94.9414C72.9301 99.543 66.7648 101.844 60.6868 101.844C56.7192 101.844 53.5435 100.874 51.1598 98.9332C48.776 96.9931 47.585 94.3967 47.585 91.1419C47.585 84.5664 52.1414 78.5651 61.2554 73.1389C70.3694 67.7135 80.4464 65 91.4859 65C99.873 65 106.919 66.5282 112.624 69.5842C117.848 66.9423 122.9 65.6202 127.781 65.6202C131.606 65.6202 134.682 66.5486 137.008 68.4054C139.335 70.2622 140.499 72.7109 140.499 75.7509Z" fill="#00A5FF"/>
<g filter="url(#filter2_d_135_2)">
<rect x="510.671" y="77.2671" width="213.76" height="42.1986" rx="8" fill="white"/>
</g>
<circle cx="530.041" cy="98.7124" r="8.30137" fill="#78CCFB"/>
<rect x="548.027" y="91.7946" width="56.726" height="5.53425" rx="2.76712" fill="#DBDEE1"/>
<rect x="548.027" y="101.479" width="35.9726" height="4.15068" rx="2.07534" fill="#DBDEE1"/>
<rect x="680.157" y="93.1781" width="11.0685" height="11.0685" rx="2" fill="#BEE1D9"/>
<rect x="696.76" y="93.1781" width="11.0685" height="11.0685" rx="2" fill="#D6D2FC"/>
<g filter="url(#filter3_d_135_2)">
<rect x="510.671" y="130.534" width="213.76" height="42.1986" rx="8" fill="white"/>
</g>
<circle cx="530.041" cy="151.979" r="8.30137" fill="#78CCFB"/>
<rect x="548.027" y="145.062" width="56.726" height="5.53425" rx="2.76712" fill="#DBDEE1"/>
<rect x="548.027" y="154.747" width="35.9726" height="4.15068" rx="2.07534" fill="#DBDEE1"/>
<rect x="680.157" y="146.445" width="11.0685" height="11.0685" rx="2" fill="#BEE1D9"/>
<rect x="696.76" y="146.445" width="11.0685" height="11.0685" rx="2" fill="#D6D2FC"/>
<g filter="url(#filter4_dd_135_2)">
<rect x="483" y="183.801" width="213.76" height="42.1986" rx="8" fill="white"/>
</g>
<circle cx="502.37" cy="205.247" r="8.30137" fill="#78CCFB"/>
<rect x="520.356" y="198.329" width="56.726" height="5.53425" rx="2.76712" fill="#DBDEE1"/>
<rect x="520.356" y="208.014" width="35.9726" height="4.15068" rx="2.07534" fill="#DBDEE1"/>
<rect x="652.486" y="199.712" width="11.0685" height="11.0685" rx="2" fill="#BEE1D9"/>
<rect x="669.089" y="199.712" width="11.0685" height="11.0685" rx="2" fill="#D6D2FC"/>
<g filter="url(#filter5_d_135_2)">
<rect x="510.671" y="24" width="213.76" height="42.1986" rx="8" fill="white"/>
</g>
<circle cx="530.041" cy="45.4452" r="8.30137" fill="#78CCFB"/>
<rect x="548.027" y="38.5273" width="56.726" height="5.53425" rx="2.76712" fill="#DBDEE1"/>
<rect x="548.027" y="48.2123" width="35.9726" height="4.15068" rx="2.07534" fill="#DBDEE1"/>
<rect x="680.157" y="39.911" width="11.0685" height="11.0685" rx="2" fill="#BEE1D9"/>
<rect x="696.76" y="39.911" width="11.0685" height="11.0685" rx="2" fill="#D6D2FC"/>
<g filter="url(#filter6_d_135_2)">
<circle cx="625.507" cy="185.877" r="11.0685" fill="white"/>
</g>
<path d="M621.356 181.726L623.201 186.338L623.662 184.032L625.968 183.571L621.356 181.726ZM628.274 185.877V186.799H627.352V185.877H628.274L626.89 184.493L625.507 185.877H626.429V186.799H625.507V185.877L624.123 187.26L625.507 188.644V187.721H626.429V188.644H625.507L626.89 190.027L628.274 188.644H627.352V187.721H628.274V188.644L629.658 187.26L628.274 185.877Z" fill="#8A85D2"/>
<rect opacity="0.1" x="210" y="36.7592" width="40.1994" height="40.1994" rx="8" transform="rotate(-45.677 210 36.7592)" fill="white"/>
<rect opacity="0.3" x="299.707" y="52.3259" width="13.4451" height="13.4451" rx="3.5" transform="rotate(-45.677 299.707 52.3259)" stroke="white"/>
<rect opacity="0.1" x="159" y="30.4465" width="8" height="8" rx="2" transform="rotate(-45.677 159 30.4465)" fill="white"/>
<rect opacity="0.2" x="379" y="24.4465" width="8.00519" height="8.00519" rx="2" transform="rotate(-45.677 379 24.4465)" fill="white"/>
<path d="M48.38 163.736C48.932 163.736 49.4 163.668 49.784 163.532C50.176 163.388 50.496 163.192 50.744 162.944C50.992 162.696 51.172 162.408 51.284 162.08C51.396 161.744 51.452 161.384 51.452 161C51.452 160.232 51.2 159.632 50.696 159.2C50.2 158.768 49.428 158.552 48.38 158.552H46.748V163.736H48.38ZM56.996 173H53.324C52.644 173 52.156 172.744 51.86 172.232L48.956 167.156C48.82 166.94 48.668 166.784 48.5 166.688C48.332 166.584 48.092 166.532 47.78 166.532H46.748V173H42.692V155.516H48.38C49.644 155.516 50.72 155.648 51.608 155.912C52.504 156.168 53.232 156.528 53.792 156.992C54.36 157.456 54.772 158.004 55.028 158.636C55.284 159.268 55.412 159.956 55.412 160.7C55.412 161.268 55.336 161.804 55.184 162.308C55.032 162.812 54.808 163.28 54.512 163.712C54.216 164.136 53.848 164.516 53.408 164.852C52.976 165.188 52.476 165.464 51.908 165.68C52.172 165.816 52.42 165.988 52.652 166.196C52.884 166.396 53.092 166.636 53.276 166.916L56.996 173ZM64.2425 167.936C63.4985 167.968 62.8865 168.032 62.4065 168.128C61.9265 168.224 61.5465 168.344 61.2665 168.488C60.9865 168.632 60.7905 168.796 60.6785 168.98C60.5745 169.164 60.5225 169.364 60.5225 169.58C60.5225 170.004 60.6385 170.304 60.8705 170.48C61.1025 170.648 61.4425 170.732 61.8905 170.732C62.3705 170.732 62.7905 170.648 63.1505 170.48C63.5105 170.312 63.8745 170.04 64.2425 169.664V167.936ZM57.5465 162.284C58.2985 161.62 59.1305 161.128 60.0425 160.808C60.9625 160.48 61.9465 160.316 62.9945 160.316C63.7465 160.316 64.4225 160.44 65.0225 160.688C65.6305 160.928 66.1425 161.268 66.5585 161.708C66.9825 162.14 67.3065 162.656 67.5305 163.256C67.7545 163.856 67.8665 164.512 67.8665 165.224V173H66.1625C65.8105 173 65.5425 172.952 65.3585 172.856C65.1825 172.76 65.0345 172.56 64.9145 172.256L64.6505 171.572C64.3385 171.836 64.0385 172.068 63.7505 172.268C63.4625 172.468 63.1625 172.64 62.8505 172.784C62.5465 172.92 62.2185 173.02 61.8665 173.084C61.5225 173.156 61.1385 173.192 60.7145 173.192C60.1465 173.192 59.6305 173.12 59.1665 172.976C58.7025 172.824 58.3065 172.604 57.9785 172.316C57.6585 172.028 57.4105 171.672 57.2345 171.248C57.0585 170.816 56.9705 170.32 56.9705 169.76C56.9705 169.312 57.0825 168.86 57.3065 168.404C57.5305 167.94 57.9185 167.52 58.4705 167.144C59.0225 166.76 59.7665 166.44 60.7025 166.184C61.6385 165.928 62.8185 165.784 64.2425 165.752V165.224C64.2425 164.496 64.0905 163.972 63.7865 163.652C63.4905 163.324 63.0665 163.16 62.5145 163.16C62.0745 163.16 61.7145 163.208 61.4345 163.304C61.1545 163.4 60.9025 163.508 60.6785 163.628C60.4625 163.748 60.2505 163.856 60.0425 163.952C59.8345 164.048 59.5865 164.096 59.2985 164.096C59.0425 164.096 58.8265 164.032 58.6505 163.904C58.4745 163.776 58.3305 163.624 58.2185 163.448L57.5465 162.284ZM77.7924 163.892C77.5124 163.58 77.2084 163.364 76.8804 163.244C76.5524 163.116 76.2084 163.052 75.8484 163.052C75.5044 163.052 75.1884 163.12 74.9004 163.256C74.6124 163.392 74.3604 163.612 74.1444 163.916C73.9364 164.212 73.7724 164.6 73.6524 165.08C73.5324 165.56 73.4724 166.14 73.4724 166.82C73.4724 167.476 73.5204 168.028 73.6164 168.476C73.7124 168.924 73.8444 169.288 74.0124 169.568C74.1884 169.84 74.3964 170.036 74.6364 170.156C74.8764 170.276 75.1444 170.336 75.4404 170.336C75.7124 170.336 75.9564 170.312 76.1724 170.264C76.3964 170.208 76.6004 170.132 76.7844 170.036C76.9684 169.94 77.1404 169.82 77.3004 169.676C77.4684 169.524 77.6324 169.352 77.7924 169.16V163.892ZM81.5124 155.036V173H79.2084C78.7444 173 78.4404 172.792 78.2964 172.376L78.0084 171.428C77.7604 171.692 77.5004 171.932 77.2284 172.148C76.9564 172.364 76.6604 172.552 76.3404 172.712C76.0284 172.864 75.6884 172.98 75.3204 173.06C74.9604 173.148 74.5684 173.192 74.1444 173.192C73.4964 173.192 72.8964 173.048 72.3444 172.76C71.7924 172.472 71.3164 172.056 70.9164 171.512C70.5164 170.968 70.2004 170.304 69.9684 169.52C69.7444 168.728 69.6324 167.828 69.6324 166.82C69.6324 165.892 69.7604 165.032 70.0164 164.24C70.2724 163.44 70.6324 162.752 71.0964 162.176C71.5684 161.592 72.1324 161.136 72.7884 160.808C73.4444 160.48 74.1684 160.316 74.9604 160.316C75.6084 160.316 76.1524 160.408 76.5924 160.592C77.0324 160.776 77.4324 161.024 77.7924 161.336V155.036H81.5124ZM87.8296 160.556V173H84.1096V160.556H87.8296ZM88.2136 157.148C88.2136 157.444 88.1536 157.724 88.0336 157.988C87.9136 158.244 87.7496 158.472 87.5416 158.672C87.3336 158.864 87.0896 159.02 86.8096 159.14C86.5376 159.252 86.2456 159.308 85.9336 159.308C85.6296 159.308 85.3456 159.252 85.0816 159.14C84.8176 159.02 84.5816 158.864 84.3736 158.672C84.1736 158.472 84.0136 158.244 83.8936 157.988C83.7816 157.724 83.7256 157.444 83.7256 157.148C83.7256 156.844 83.7816 156.56 83.8936 156.296C84.0136 156.032 84.1736 155.8 84.3736 155.6C84.5816 155.4 84.8176 155.244 85.0816 155.132C85.3456 155.02 85.6296 154.964 85.9336 154.964C86.2456 154.964 86.5376 155.02 86.8096 155.132C87.0896 155.244 87.3336 155.4 87.5416 155.6C87.7496 155.8 87.9136 156.032 88.0336 156.296C88.1536 156.56 88.2136 156.844 88.2136 157.148ZM96.8441 167.936C96.1001 167.968 95.4881 168.032 95.0081 168.128C94.5281 168.224 94.1481 168.344 93.8681 168.488C93.5881 168.632 93.3921 168.796 93.2801 168.98C93.1761 169.164 93.1241 169.364 93.1241 169.58C93.1241 170.004 93.2401 170.304 93.4721 170.48C93.7041 170.648 94.0441 170.732 94.4921 170.732C94.9721 170.732 95.3921 170.648 95.7521 170.48C96.1121 170.312 96.4761 170.04 96.8441 169.664V167.936ZM90.1481 162.284C90.9001 161.62 91.7321 161.128 92.6441 160.808C93.5641 160.48 94.5481 160.316 95.5961 160.316C96.3481 160.316 97.0241 160.44 97.6241 160.688C98.2321 160.928 98.7441 161.268 99.1601 161.708C99.5841 162.14 99.9081 162.656 100.132 163.256C100.356 163.856 100.468 164.512 100.468 165.224V173H98.7641C98.4121 173 98.1441 172.952 97.9601 172.856C97.7841 172.76 97.6361 172.56 97.5161 172.256L97.2521 171.572C96.9401 171.836 96.6401 172.068 96.3521 172.268C96.0641 172.468 95.7641 172.64 95.4521 172.784C95.1481 172.92 94.8201 173.02 94.4681 173.084C94.1241 173.156 93.7401 173.192 93.3161 173.192C92.7481 173.192 92.2321 173.12 91.7681 172.976C91.3041 172.824 90.9081 172.604 90.5801 172.316C90.2601 172.028 90.0121 171.672 89.8361 171.248C89.6601 170.816 89.5721 170.32 89.5721 169.76C89.5721 169.312 89.6841 168.86 89.9081 168.404C90.1321 167.94 90.5201 167.52 91.0721 167.144C91.6241 166.76 92.3681 166.44 93.3041 166.184C94.2401 165.928 95.4201 165.784 96.8441 165.752V165.224C96.8441 164.496 96.6921 163.972 96.3881 163.652C96.0921 163.324 95.6681 163.16 95.1161 163.16C94.6761 163.16 94.3161 163.208 94.0361 163.304C93.7561 163.4 93.5041 163.508 93.2801 163.628C93.0641 163.748 92.8521 163.856 92.6441 163.952C92.4361 164.048 92.1881 164.096 91.9001 164.096C91.6441 164.096 91.4281 164.032 91.2521 163.904C91.0761 163.776 90.9321 163.624 90.8201 163.448L90.1481 162.284ZM106.278 161.9C106.518 161.676 106.766 161.468 107.022 161.276C107.278 161.084 107.55 160.924 107.838 160.796C108.134 160.66 108.45 160.556 108.786 160.484C109.13 160.404 109.502 160.364 109.902 160.364C110.582 160.364 111.182 160.484 111.702 160.724C112.23 160.956 112.674 161.284 113.034 161.708C113.394 162.124 113.666 162.624 113.85 163.208C114.034 163.784 114.126 164.412 114.126 165.092V173H110.406V165.092C110.406 164.484 110.266 164.012 109.986 163.676C109.706 163.332 109.294 163.16 108.75 163.16C108.342 163.16 107.958 163.248 107.598 163.424C107.246 163.592 106.902 163.824 106.566 164.12V173H102.846V160.556H105.15C105.614 160.556 105.918 160.764 106.062 161.18L106.278 161.9ZM120.821 173.192C120.229 173.192 119.705 173.108 119.249 172.94C118.801 172.764 118.421 172.52 118.109 172.208C117.805 171.888 117.573 171.504 117.413 171.056C117.253 170.608 117.173 170.108 117.173 169.556V163.124H116.117C115.925 163.124 115.761 163.064 115.625 162.944C115.489 162.816 115.421 162.632 115.421 162.392V160.94L117.401 160.556L118.133 157.52C118.229 157.136 118.501 156.944 118.949 156.944H120.893V160.58H123.977V163.124H120.893V169.304C120.893 169.592 120.961 169.832 121.097 170.024C121.241 170.208 121.445 170.3 121.709 170.3C121.845 170.3 121.957 170.288 122.045 170.264C122.141 170.232 122.221 170.2 122.285 170.168C122.357 170.128 122.421 170.096 122.477 170.072C122.541 170.04 122.613 170.024 122.693 170.024C122.805 170.024 122.893 170.052 122.957 170.108C123.029 170.156 123.101 170.236 123.173 170.348L124.301 172.112C123.821 172.472 123.281 172.744 122.681 172.928C122.081 173.104 121.461 173.192 120.821 173.192ZM137.255 163.736C137.807 163.736 138.275 163.668 138.659 163.532C139.051 163.388 139.371 163.192 139.619 162.944C139.867 162.696 140.047 162.408 140.159 162.08C140.271 161.744 140.327 161.384 140.327 161C140.327 160.232 140.075 159.632 139.571 159.2C139.075 158.768 138.303 158.552 137.255 158.552H135.623V163.736H137.255ZM145.871 173H142.199C141.519 173 141.031 172.744 140.735 172.232L137.831 167.156C137.695 166.94 137.543 166.784 137.375 166.688C137.207 166.584 136.967 166.532 136.655 166.532H135.623V173H131.567V155.516H137.255C138.519 155.516 139.595 155.648 140.483 155.912C141.379 156.168 142.107 156.528 142.667 156.992C143.235 157.456 143.647 158.004 143.903 158.636C144.159 159.268 144.287 159.956 144.287 160.7C144.287 161.268 144.211 161.804 144.059 162.308C143.907 162.812 143.683 163.28 143.387 163.712C143.091 164.136 142.723 164.516 142.283 164.852C141.851 165.188 141.351 165.464 140.783 165.68C141.047 165.816 141.295 165.988 141.527 166.196C141.759 166.396 141.967 166.636 142.151 166.916L145.871 173ZM153.828 165.284C153.828 164.988 153.788 164.7 153.708 164.42C153.636 164.14 153.512 163.892 153.336 163.676C153.168 163.452 152.944 163.272 152.664 163.136C152.384 163 152.044 162.932 151.644 162.932C150.94 162.932 150.388 163.136 149.988 163.544C149.588 163.944 149.324 164.524 149.196 165.284H153.828ZM149.148 167.444C149.268 168.484 149.584 169.24 150.096 169.712C150.608 170.176 151.268 170.408 152.076 170.408C152.508 170.408 152.88 170.356 153.192 170.252C153.504 170.148 153.78 170.032 154.02 169.904C154.268 169.776 154.492 169.66 154.692 169.556C154.9 169.452 155.116 169.4 155.34 169.4C155.636 169.4 155.86 169.508 156.012 169.724L157.092 171.056C156.708 171.496 156.292 171.856 155.844 172.136C155.404 172.408 154.948 172.624 154.476 172.784C154.012 172.936 153.544 173.04 153.072 173.096C152.608 173.16 152.164 173.192 151.74 173.192C150.868 173.192 150.048 173.052 149.28 172.772C148.52 172.484 147.852 172.06 147.276 171.5C146.708 170.94 146.256 170.244 145.92 169.412C145.592 168.58 145.428 167.612 145.428 166.508C145.428 165.676 145.568 164.888 145.848 164.144C146.136 163.4 146.544 162.748 147.072 162.188C147.608 161.628 148.252 161.184 149.004 160.856C149.764 160.528 150.62 160.364 151.572 160.364C152.396 160.364 153.148 160.492 153.828 160.748C154.516 161.004 155.104 161.376 155.592 161.864C156.088 162.352 156.472 162.952 156.744 163.664C157.024 164.368 157.164 165.168 157.164 166.064C157.164 166.344 157.152 166.572 157.128 166.748C157.104 166.924 157.06 167.064 156.996 167.168C156.932 167.272 156.844 167.344 156.732 167.384C156.628 167.424 156.492 167.444 156.324 167.444H149.148ZM163.766 166.124C164.382 166.124 164.826 165.972 165.098 165.668C165.378 165.356 165.518 164.956 165.518 164.468C165.518 163.964 165.378 163.568 165.098 163.28C164.826 162.992 164.382 162.848 163.766 162.848C163.15 162.848 162.702 162.992 162.422 163.28C162.15 163.568 162.014 163.964 162.014 164.468C162.014 164.708 162.046 164.928 162.11 165.128C162.182 165.328 162.29 165.504 162.434 165.656C162.578 165.8 162.758 165.916 162.974 166.004C163.198 166.084 163.462 166.124 163.766 166.124ZM166.646 173.456C166.646 173.16 166.514 172.948 166.25 172.82C165.986 172.684 165.642 172.588 165.218 172.532C164.794 172.476 164.318 172.444 163.79 172.436C163.27 172.42 162.75 172.388 162.23 172.34C161.998 172.5 161.806 172.68 161.654 172.88C161.51 173.072 161.438 173.292 161.438 173.54C161.438 173.716 161.474 173.876 161.546 174.02C161.626 174.164 161.762 174.288 161.954 174.392C162.146 174.496 162.402 174.576 162.722 174.632C163.05 174.696 163.462 174.728 163.958 174.728C164.494 174.728 164.934 174.696 165.278 174.632C165.622 174.568 165.894 174.48 166.094 174.368C166.302 174.256 166.446 174.12 166.526 173.96C166.606 173.808 166.646 173.64 166.646 173.456ZM170.318 160.94V162.296C170.318 162.504 170.258 162.668 170.138 162.788C170.026 162.908 169.83 163 169.55 163.064L168.65 163.268C168.698 163.444 168.734 163.624 168.758 163.808C168.79 163.992 168.806 164.184 168.806 164.384C168.806 165.008 168.674 165.568 168.41 166.064C168.154 166.56 167.798 166.984 167.342 167.336C166.894 167.68 166.362 167.948 165.746 168.14C165.13 168.324 164.47 168.416 163.766 168.416C163.574 168.416 163.386 168.412 163.202 168.404C163.018 168.388 162.838 168.364 162.662 168.332C162.39 168.5 162.254 168.688 162.254 168.896C162.254 169.104 162.366 169.256 162.59 169.352C162.814 169.44 163.11 169.504 163.478 169.544C163.846 169.576 164.262 169.6 164.726 169.616C165.198 169.624 165.678 169.652 166.166 169.7C166.654 169.74 167.13 169.812 167.594 169.916C168.066 170.02 168.486 170.188 168.854 170.42C169.222 170.652 169.518 170.964 169.742 171.356C169.966 171.74 170.078 172.232 170.078 172.832C170.078 173.392 169.942 173.94 169.67 174.476C169.398 175.012 168.998 175.488 168.47 175.904C167.942 176.32 167.294 176.652 166.526 176.9C165.758 177.156 164.878 177.284 163.886 177.284C162.91 177.284 162.066 177.192 161.354 177.008C160.65 176.824 160.062 176.58 159.59 176.276C159.126 175.98 158.782 175.636 158.558 175.244C158.334 174.852 158.222 174.444 158.222 174.02C158.222 173.468 158.382 173.008 158.702 172.64C159.022 172.272 159.47 171.976 160.046 171.752C159.742 171.568 159.502 171.332 159.326 171.044C159.15 170.756 159.062 170.384 159.062 169.928C159.062 169.744 159.094 169.552 159.158 169.352C159.222 169.144 159.322 168.944 159.458 168.752C159.602 168.552 159.778 168.364 159.986 168.188C160.194 168.012 160.442 167.856 160.73 167.72C160.082 167.376 159.57 166.924 159.194 166.364C158.818 165.796 158.63 165.136 158.63 164.384C158.63 163.76 158.762 163.2 159.026 162.704C159.29 162.2 159.65 161.776 160.106 161.432C160.57 161.08 161.114 160.812 161.738 160.628C162.362 160.436 163.038 160.34 163.766 160.34C164.822 160.34 165.758 160.54 166.574 160.94H170.318ZM175.673 160.556V173H171.953V160.556H175.673ZM176.057 157.148C176.057 157.444 175.997 157.724 175.877 157.988C175.757 158.244 175.593 158.472 175.385 158.672C175.177 158.864 174.933 159.02 174.653 159.14C174.381 159.252 174.089 159.308 173.777 159.308C173.473 159.308 173.189 159.252 172.925 159.14C172.661 159.02 172.425 158.864 172.217 158.672C172.017 158.472 171.857 158.244 171.737 157.988C171.625 157.724 171.569 157.444 171.569 157.148C171.569 156.844 171.625 156.56 171.737 156.296C171.857 156.032 172.017 155.8 172.217 155.6C172.425 155.4 172.661 155.244 172.925 155.132C173.189 155.02 173.473 154.964 173.777 154.964C174.089 154.964 174.381 155.02 174.653 155.132C174.933 155.244 175.177 155.4 175.385 155.6C175.593 155.8 175.757 156.032 175.877 156.296C175.997 156.56 176.057 156.844 176.057 157.148ZM186.176 163.28C186.08 163.432 185.976 163.54 185.864 163.604C185.76 163.668 185.624 163.7 185.456 163.7C185.28 163.7 185.104 163.664 184.928 163.592C184.752 163.512 184.56 163.428 184.352 163.34C184.152 163.252 183.924 163.172 183.668 163.1C183.412 163.02 183.12 162.98 182.792 162.98C182.32 162.98 181.956 163.072 181.7 163.256C181.452 163.432 181.328 163.68 181.328 164C181.328 164.232 181.408 164.424 181.568 164.576C181.736 164.728 181.956 164.864 182.228 164.984C182.5 165.096 182.808 165.204 183.152 165.308C183.496 165.412 183.848 165.528 184.208 165.656C184.568 165.784 184.92 165.936 185.264 166.112C185.608 166.28 185.916 166.492 186.188 166.748C186.46 166.996 186.676 167.3 186.836 167.66C187.004 168.02 187.088 168.452 187.088 168.956C187.088 169.572 186.976 170.14 186.752 170.66C186.528 171.18 186.192 171.628 185.744 172.004C185.304 172.38 184.756 172.672 184.1 172.88C183.452 173.088 182.704 173.192 181.856 173.192C181.432 173.192 181.008 173.152 180.584 173.072C180.16 172.992 179.748 172.884 179.348 172.748C178.956 172.612 178.592 172.452 178.256 172.268C177.92 172.076 177.632 171.872 177.392 171.656L178.256 170.288C178.352 170.128 178.472 170.004 178.616 169.916C178.768 169.82 178.96 169.772 179.192 169.772C179.408 169.772 179.6 169.82 179.768 169.916C179.944 170.012 180.132 170.116 180.332 170.228C180.532 170.34 180.764 170.444 181.028 170.54C181.3 170.636 181.64 170.684 182.048 170.684C182.336 170.684 182.58 170.656 182.78 170.6C182.98 170.536 183.14 170.452 183.26 170.348C183.38 170.244 183.468 170.128 183.524 170C183.58 169.872 183.608 169.74 183.608 169.604C183.608 169.356 183.524 169.152 183.356 168.992C183.188 168.832 182.968 168.696 182.696 168.584C182.424 168.464 182.112 168.356 181.76 168.26C181.416 168.156 181.064 168.04 180.704 167.912C180.344 167.784 179.988 167.632 179.636 167.456C179.292 167.272 178.984 167.044 178.712 166.772C178.44 166.492 178.22 166.152 178.052 165.752C177.884 165.352 177.8 164.868 177.8 164.3C177.8 163.772 177.9 163.272 178.1 162.8C178.308 162.32 178.616 161.9 179.024 161.54C179.432 161.18 179.944 160.896 180.56 160.688C181.176 160.472 181.896 160.364 182.72 160.364C183.168 160.364 183.6 160.404 184.016 160.484C184.44 160.564 184.836 160.676 185.204 160.82C185.572 160.964 185.908 161.136 186.212 161.336C186.516 161.528 186.784 161.74 187.016 161.972L186.176 163.28ZM193.407 173.192C192.815 173.192 192.291 173.108 191.835 172.94C191.387 172.764 191.007 172.52 190.695 172.208C190.391 171.888 190.159 171.504 189.999 171.056C189.839 170.608 189.759 170.108 189.759 169.556V163.124H188.703C188.511 163.124 188.347 163.064 188.211 162.944C188.075 162.816 188.007 162.632 188.007 162.392V160.94L189.987 160.556L190.719 157.52C190.815 157.136 191.087 156.944 191.535 156.944H193.479V160.58H196.563V163.124H193.479V169.304C193.479 169.592 193.547 169.832 193.683 170.024C193.827 170.208 194.031 170.3 194.295 170.3C194.431 170.3 194.543 170.288 194.631 170.264C194.727 170.232 194.807 170.2 194.871 170.168C194.943 170.128 195.007 170.096 195.063 170.072C195.127 170.04 195.199 170.024 195.279 170.024C195.391 170.024 195.479 170.052 195.543 170.108C195.615 170.156 195.687 170.236 195.759 170.348L196.887 172.112C196.407 172.472 195.867 172.744 195.267 172.928C194.667 173.104 194.047 173.192 193.407 173.192ZM201.646 162.476C202.03 161.804 202.47 161.276 202.966 160.892C203.47 160.508 204.046 160.316 204.694 160.316C205.254 160.316 205.71 160.448 206.062 160.712L205.822 163.448C205.782 163.624 205.714 163.744 205.618 163.808C205.53 163.872 205.406 163.904 205.246 163.904C205.182 163.904 205.098 163.9 204.994 163.892C204.89 163.884 204.782 163.876 204.67 163.868C204.558 163.852 204.442 163.84 204.322 163.832C204.21 163.816 204.106 163.808 204.01 163.808C203.466 163.808 203.03 163.952 202.702 164.24C202.382 164.528 202.11 164.928 201.886 165.44V173H198.166V160.556H200.374C200.558 160.556 200.71 160.572 200.83 160.604C200.958 160.636 201.062 160.688 201.142 160.76C201.23 160.824 201.294 160.912 201.334 161.024C201.382 161.136 201.422 161.272 201.454 161.432L201.646 162.476ZM213.633 167.936C212.889 167.968 212.277 168.032 211.797 168.128C211.317 168.224 210.937 168.344 210.657 168.488C210.377 168.632 210.181 168.796 210.069 168.98C209.965 169.164 209.913 169.364 209.913 169.58C209.913 170.004 210.029 170.304 210.261 170.48C210.493 170.648 210.833 170.732 211.281 170.732C211.761 170.732 212.181 170.648 212.541 170.48C212.901 170.312 213.265 170.04 213.633 169.664V167.936ZM206.937 162.284C207.689 161.62 208.521 161.128 209.433 160.808C210.353 160.48 211.337 160.316 212.385 160.316C213.137 160.316 213.813 160.44 214.413 160.688C215.021 160.928 215.533 161.268 215.949 161.708C216.373 162.14 216.697 162.656 216.921 163.256C217.145 163.856 217.257 164.512 217.257 165.224V173H215.553C215.201 173 214.933 172.952 214.749 172.856C214.573 172.76 214.425 172.56 214.305 172.256L214.041 171.572C213.729 171.836 213.429 172.068 213.141 172.268C212.853 172.468 212.553 172.64 212.241 172.784C211.937 172.92 211.609 173.02 211.257 173.084C210.913 173.156 210.529 173.192 210.105 173.192C209.537 173.192 209.021 173.12 208.557 172.976C208.093 172.824 207.697 172.604 207.369 172.316C207.049 172.028 206.801 171.672 206.625 171.248C206.449 170.816 206.361 170.32 206.361 169.76C206.361 169.312 206.473 168.86 206.697 168.404C206.921 167.94 207.309 167.52 207.861 167.144C208.413 166.76 209.157 166.44 210.093 166.184C211.029 165.928 212.209 165.784 213.633 165.752V165.224C213.633 164.496 213.481 163.972 213.177 163.652C212.881 163.324 212.457 163.16 211.905 163.16C211.465 163.16 211.105 163.208 210.825 163.304C210.545 163.4 210.293 163.508 210.069 163.628C209.853 163.748 209.641 163.856 209.433 163.952C209.225 164.048 208.977 164.096 208.689 164.096C208.433 164.096 208.217 164.032 208.041 163.904C207.865 163.776 207.721 163.624 207.609 163.448L206.937 162.284ZM232.9 173H229.18V163.124H223.972V169.304C223.972 169.592 224.04 169.832 224.176 170.024C224.32 170.208 224.524 170.3 224.788 170.3C224.924 170.3 225.036 170.288 225.124 170.264C225.22 170.232 225.3 170.2 225.364 170.168C225.436 170.128 225.5 170.096 225.556 170.072C225.62 170.04 225.692 170.024 225.772 170.024C225.884 170.024 225.972 170.052 226.036 170.108C226.108 170.156 226.18 170.236 226.252 170.348L227.38 172.112C226.9 172.472 226.36 172.744 225.76 172.928C225.16 173.104 224.54 173.192 223.9 173.192C223.308 173.192 222.784 173.108 222.328 172.94C221.88 172.764 221.5 172.52 221.188 172.208C220.884 171.888 220.652 171.504 220.492 171.056C220.332 170.608 220.252 170.108 220.252 169.556V163.124H219.196C219.004 163.124 218.84 163.064 218.704 162.944C218.568 162.816 218.5 162.632 218.5 162.392V160.94L220.48 160.544L221.212 157.52C221.308 157.136 221.58 156.944 222.028 156.944H223.972V160.58H232.9V173ZM233.416 157.136C233.416 157.432 233.356 157.712 233.236 157.976C233.116 158.24 232.952 158.472 232.744 158.672C232.536 158.864 232.292 159.016 232.012 159.128C231.74 159.24 231.448 159.296 231.135 159.296C230.832 159.296 230.548 159.24 230.284 159.128C230.02 159.016 229.784 158.864 229.576 158.672C229.376 158.472 229.216 158.24 229.096 157.976C228.984 157.712 228.928 157.432 228.928 157.136C228.928 156.84 228.984 156.56 229.096 156.296C229.216 156.024 229.376 155.792 229.576 155.6C229.784 155.4 230.02 155.244 230.284 155.132C230.548 155.012 230.832 154.952 231.135 154.952C231.448 154.952 231.74 155.012 232.012 155.132C232.292 155.244 232.536 155.4 232.744 155.6C232.952 155.792 233.116 156.024 233.236 156.296C233.356 156.56 233.416 156.84 233.416 157.136ZM241.238 160.364C242.182 160.364 243.042 160.512 243.818 160.808C244.594 161.104 245.258 161.528 245.81 162.08C246.37 162.632 246.802 163.304 247.106 164.096C247.418 164.88 247.574 165.764 247.574 166.748C247.574 167.74 247.418 168.636 247.106 169.436C246.802 170.228 246.37 170.904 245.81 171.464C245.258 172.016 244.594 172.444 243.818 172.748C243.042 173.044 242.182 173.192 241.238 173.192C240.286 173.192 239.418 173.044 238.634 172.748C237.858 172.444 237.186 172.016 236.618 171.464C236.058 170.904 235.622 170.228 235.31 169.436C235.006 168.636 234.854 167.74 234.854 166.748C234.854 165.764 235.006 164.88 235.31 164.096C235.622 163.304 236.058 162.632 236.618 162.08C237.186 161.528 237.858 161.104 238.634 160.808C239.418 160.512 240.286 160.364 241.238 160.364ZM241.238 170.432C242.094 170.432 242.722 170.132 243.122 169.532C243.53 168.924 243.734 168.004 243.734 166.772C243.734 165.54 243.53 164.624 243.122 164.024C242.722 163.424 242.094 163.124 241.238 163.124C240.358 163.124 239.714 163.424 239.306 164.024C238.898 164.624 238.694 165.54 238.694 166.772C238.694 168.004 238.898 168.924 239.306 169.532C239.714 170.132 240.358 170.432 241.238 170.432ZM252.88 161.9C253.12 161.676 253.368 161.468 253.624 161.276C253.88 161.084 254.152 160.924 254.44 160.796C254.736 160.66 255.052 160.556 255.388 160.484C255.732 160.404 256.104 160.364 256.504 160.364C257.184 160.364 257.784 160.484 258.304 160.724C258.832 160.956 259.276 161.284 259.636 161.708C259.996 162.124 260.268 162.624 260.452 163.208C260.636 163.784 260.728 164.412 260.728 165.092V173H257.008V165.092C257.008 164.484 256.868 164.012 256.588 163.676C256.308 163.332 255.896 163.16 255.352 163.16C254.944 163.16 254.56 163.248 254.2 163.424C253.848 163.592 253.504 163.824 253.168 164.12V173H249.448V160.556H251.752C252.216 160.556 252.52 160.764 252.664 161.18L252.88 161.9Z" fill="white"/>
</g>
<defs>
<filter id="filter0_d_135_2" x="-2" y="0" width="796" height="278" filterUnits="userSpaceOnUse" color-interpolation-filters="sRGB">
<feFlood flood-opacity="0" result="BackgroundImageFix"/>
<feColorMatrix in="SourceAlpha" type="matrix" values="0 0 0 0 0 0 0 0 0 0 0 0 0 0 0 0 0 0 127 0" result="hardAlpha"/>
<feOffset dx="10" dy="16"/>
<feGaussianBlur stdDeviation="6"/>
<feComposite in2="hardAlpha" operator="out"/>
<feColorMatrix type="matrix" values="0 0 0 0 0 0 0 0 0 0 0 0 0 0 0 0 0 0 0.08 0"/>
<feBlend mode="normal" in2="BackgroundImageFix" result="effect1_dropShadow_135_2"/>
<feBlend mode="normal" in="SourceGraphic" in2="effect1_dropShadow_135_2" result="shape"/>
</filter>
<filter id="filter1_d_135_2" x="28" y="32" width="161" height="132" filterUnits="userSpaceOnUse" color-interpolation-filters="sRGB">
<feFlood flood-opacity="0" result="BackgroundImageFix"/>
<feColorMatrix in="SourceAlpha" type="matrix" values="0 0 0 0 0 0 0 0 0 0 0 0 0 0 0 0 0 0 127 0" result="hardAlpha"/>
<feOffset dx="16" dy="8"/>
<feGaussianBlur stdDeviation="16"/>
<feComposite in2="hardAlpha" operator="out"/>
<feColorMatrix type="matrix" values="0 0 0 0 0.0553392 0 0 0 0 0.0335804 0 0 0 0 0.305566 0 0 0 0.16 0"/>
<feBlend mode="normal" in2="BackgroundImageFix" result="effect1_dropShadow_135_2"/>
<feBlend mode="normal" in="SourceGraphic" in2="effect1_dropShadow_135_2" result="shape"/>
</filter>
<filter id="filter2_d_135_2" x="496.671" y="69.2671" width="261.76" height="90.1986" filterUnits="userSpaceOnUse" color-interpolation-filters="sRGB">
<feFlood flood-opacity="0" result="BackgroundImageFix"/>
<feColorMatrix in="SourceAlpha" type="matrix" values="0 0 0 0 0 0 0 0 0 0 0 0 0 0 0 0 0 0 127 0" result="hardAlpha"/>
<feOffset dx="10" dy="16"/>
<feGaussianBlur stdDeviation="12"/>
<feComposite in2="hardAlpha" operator="out"/>
<feColorMatrix type="matrix" values="0 0 0 0 0.00522936 0 0 0 0 0.0165464 0 0 0 0 0.288154 0 0 0 0.08 0"/>
<feBlend mode="normal" in2="BackgroundImageFix" result="effect1_dropShadow_135_2"/>
<feBlend mode="normal" in="SourceGraphic" in2="effect1_dropShadow_135_2" result="shape"/>
</filter>
<filter id="filter3_d_135_2" x="496.671" y="122.534" width="261.76" height="90.1986" filterUnits="userSpaceOnUse" color-interpolation-filters="sRGB">
<feFlood flood-opacity="0" result="BackgroundImageFix"/>
<feColorMatrix in="SourceAlpha" type="matrix" values="0 0 0 0 0 0 0 0 0 0 0 0 0 0 0 0 0 0 127 0" result="hardAlpha"/>
<feOffset dx="10" dy="16"/>
<feGaussianBlur stdDeviation="12"/>
<feComposite in2="hardAlpha" operator="out"/>
<feColorMatrix type="matrix" values="0 0 0 0 0.00522936 0 0 0 0 0.0165464 0 0 0 0 0.288154 0 0 0 0.08 0"/>
<feBlend mode="normal" in2="BackgroundImageFix" result="effect1_dropShadow_135_2"/>
<feBlend mode="normal" in="SourceGraphic" in2="effect1_dropShadow_135_2" result="shape"/>
</filter>
<filter id="filter4_dd_135_2" x="431" y="141.801" width="289.76" height="142.199" filterUnits="userSpaceOnUse" color-interpolation-filters="sRGB">
<feFlood flood-opacity="0" result="BackgroundImageFix"/>
<feColorMatrix in="SourceAlpha" type="matrix" values="0 0 0 0 0 0 0 0 0 0 0 0 0 0 0 0 0 0 127 0" result="hardAlpha"/>
<feOffset dx="-20" dy="26"/>
<feGaussianBlur stdDeviation="16"/>
<feComposite in2="hardAlpha" operator="out"/>
<feColorMatrix type="matrix" values="0 0 0 0 0.00522936 0 0 0 0 0.0165464 0 0 0 0 0.288154 0 0 0 0.08 0"/>
<feBlend mode="normal" in2="BackgroundImageFix" result="effect1_dropShadow_135_2"/>
<feColorMatrix in="SourceAlpha" type="matrix" values="0 0 0 0 0 0 0 0 0 0 0 0 0 0 0 0 0 0 127 0" result="hardAlpha"/>
<feOffset dx="-10" dy="-8"/>
<feGaussianBlur stdDeviation="17"/>
<feComposite in2="hardAlpha" operator="out"/>
<feColorMatrix type="matrix" values="0 0 0 0 0.0126544 0 0 0 0 0.0440109 0 0 0 0 0.208633 0 0 0 0.04 0"/>
<feBlend mode="normal" in2="effect1_dropShadow_135_2" result="effect2_dropShadow_135_2"/>
<feBlend mode="normal" in="SourceGraphic" in2="effect2_dropShadow_135_2" result="shape"/>
</filter>
<filter id="filter5_d_135_2" x="496.671" y="16" width="261.76" height="90.1986" filterUnits="userSpaceOnUse" color-interpolation-filters="sRGB">
<feFlood flood-opacity="0" result="BackgroundImageFix"/>
<feColorMatrix in="SourceAlpha" type="matrix" values="0 0 0 0 0 0 0 0 0 0 0 0 0 0 0 0 0 0 127 0" result="hardAlpha"/>
<feOffset dx="10" dy="16"/>
<feGaussianBlur stdDeviation="12"/>
<feComposite in2="hardAlpha" operator="out"/>
<feColorMatrix type="matrix" values="0 0 0 0 0.00522936 0 0 0 0 0.0165464 0 0 0 0 0.288154 0 0 0 0.08 0"/>
<feBlend mode="normal" in2="BackgroundImageFix" result="effect1_dropShadow_135_2"/>
<feBlend mode="normal" in="SourceGraphic" in2="effect1_dropShadow_135_2" result="shape"/>
</filter>
<filter id="filter6_d_135_2" x="600.438" y="162.808" width="54.137" height="54.137" filterUnits="userSpaceOnUse" color-interpolation-filters="sRGB">
<feFlood flood-opacity="0" result="BackgroundImageFix"/>
<feColorMatrix in="SourceAlpha" type="matrix" values="0 0 0 0 0 0 0 0 0 0 0 0 0 0 0 0 0 0 127 0" result="hardAlpha"/>
<feOffset dx="2" dy="4"/>
<feGaussianBlur stdDeviation="8"/>
<feComposite in2="hardAlpha" operator="out"/>
<feColorMatrix type="matrix" values="0 0 0 0 0 0 0 0 0 0 0 0 0 0 0 0 0 0 0.08 0"/>
<feBlend mode="normal" in2="BackgroundImageFix" result="effect1_dropShadow_135_2"/>
<feBlend mode="normal" in="SourceGraphic" in2="effect1_dropShadow_135_2" result="shape"/>
</filter>
<clipPath id="clip0_135_2">
<rect width="772" height="250" fill="white"/>
</clipPath>
</defs>
</svg>
