<?xml version="1.0" encoding="utf-8"?>
<!-- Generator: Adobe Illustrator 27.1.1, SVG Export Plug-In . SVG Version: 6.00 Build 0)  -->
<svg version="1.1" id="Layer_1" xmlns="http://www.w3.org/2000/svg" xmlns:xlink="http://www.w3.org/1999/xlink" x="0px" y="0px"
	 viewBox="0 0 1843.2 1843.2" style="enable-background:new 0 0 1843.2 1843.2;" xml:space="preserve">
<style type="text/css">
	.st0{fill:#00A5FF;}
</style>
<g>
	<path class="st0" d="M-3747.8,924.3h-364.5c-277.82-301.7-555.65-603.39-833.45-905.09h728.64c40.7,0,74.88-14.15,102.54-42.53
		c27.61-28.37,41.45-62.17,41.45-101.45v-37.08c0-40.72-13.84-74.9-41.45-102.53c-27.66-27.65-61.85-41.47-102.54-41.47
		c-351.23,0-702.46,0.02-1053.68,0.02l-292.35-292.33h1418.03c100.33,0,186.12,35.66,257.41,106.9
		c71.26,71.24,106.92,157.07,106.92,257.41v181.06c0,100.37-35.66,186.19-106.92,257.45c-71.29,71.26-157.08,106.88-257.41,106.88
		h-144C-4108.66,515.79-3928.22,720.05-3747.8,924.3z"/>
	<path class="st0" d="M-4863.75-186.5c-15.02,2.4-94.09,16.58-145.32,89.8c-38.79,55.43-39.29,112.8-38.57,132.49V924.3h-307.58
		V48.52c7.91-62.57,30.77-104.04,48.81-129.04C-5224.4-194.22-5048.91-235.19-4863.75-186.5z"/>
</g>
<path class="st0" d="M-2240.06,1070.33h-357.37c38.97-125.77,109.63-416.12,14.75-760.56c-62.1-225.43-171.13-386.99-246.82-481.43
	c346.31,170.36,310.01-555.78-75.41-555.78h-80.99V970.63c0,35.88,23.03,60.75,23.03,60.75c5.54,7.94,15.75,20.39,32.28,30.69
	c5.48,3.4,10.88,6.12,16.07,8.26h-488.06c6.14-3.82,51.47-9.25,75.24-38.96c19.51-24.38,22.44-50.58,23.04-60.75V-643.65
	c-0.6-10.17-3.54-36.37-23.04-60.75c-27.96-34.94-68.39-39.15-75.94-39.8h545.84c874.17,0,664.7,779.22,139.65,633.99
	C-2382.79,104.74-2139.89,495.45-2240.06,1070.33z"/>
<g>
	<path class="st0" d="M-711.37,400.91c-30.9-45.08-67.65-79.73-110.26-103.93c63.49-20.07,120.06-46.84,169.76-80.31
		c49.71-33.48,91.46-72.38,125.29-116.72c33.82-44.34,59.69-93.71,77.66-148.12c17.96-54.37,26.95-112.11,26.95-173.22
		c0-76.95-13.15-147.43-39.45-211.44c-26.31-64-67.65-119.02-124.03-165.03c-56.39-46-128.63-81.8-216.76-107.32
		c-88.12-25.51-193.97-38.29-317.59-38.29h-552.51V1069.6h337.02V-482.62h215.49c124.43,0,216.94,24.7,277.51,74.1
		c60.55,49.4,90.84,120.11,90.84,212.19c0,46.06-7.53,88.34-22.57,126.83c-15.04,38.51-37.79,71.79-68.27,99.83
		c-30.51,28.04-69.35,50.02-116.53,65.92c-47.18,15.9-102.51,23.84-166,23.84h-99.8v241.08h33.39c33.41,0,58.7,4.6,75.8,13.81
		c17.11,9.19,32.79,24.63,47,46.37l380.86,580.54c14.2,21.74,31.52,38.48,52,50.18c20.44,11.7,45.3,17.53,74.54,17.53h303.21
		L-711.37,400.91z"/>
</g>
<g>
	<path class="st0" d="M-3856.37,2910.49h-451.11l-310.22-450.27c130.22,1.7,256.29-22.31,367.75-70.35
		c7.9-3.41,15.71-6.93,23.43-10.57L-3856.37,2910.49z"/>
	<path class="st0" d="M-3985.24,2107.5c91.63-147.09,95.38-310.74,95.38-346.7c0-135.74-31.82-252.61-95.38-350.58
		c-63.6-97.94-153.83-173.12-270.67-225.55c-116.87-52.4-256.08-78.61-417.61-78.61h-781.04v1804.43h417.58v-502.67h363.46
		C-4384.19,2428.79-4115.52,2316.63-3985.24,2107.5z M-4408,1528.8c63.56,54.99,95.38,132.31,95.38,231.99
		c0,97.97-31.82,174.87-95.38,230.73c-63.6,55.86-159.82,83.76-288.7,83.76h-340.29V1446.3h340.29
		C-4567.82,1446.3-4471.6,1473.82-4408,1528.8z"/>
</g>
<path class="st0" d="M-2022.83,2780.57c-14.26,9.2-32.27,14.67-54.02,16.34c-31.82,0-56.11-13.37-72.85-40.18
	c-16.75-26.81-32.64-73.7-47.71-140.68l-57.78-258.69c-10.88-51.91-28.15-97.33-51.8-136.26c-32.41-53.35-73.64-84.92-90.11-97.33
	c-32.93-23.57-78.11-51.11-135.38-73.69c-65.4-25.79-124.22-36.31-167.84-40.71c35.58,0.13,85.79-2.9,143.71-17.49
	c41.59-10.47,137.48-36.71,229.84-118.04c56.1-49.39,95.87-102.96,119.33-160.74c23.43-57.77,35.16-115.1,35.16-172.06
	c0-92.08-25.54-170.79-76.63-236.1c-51.09-65.28-128.09-115.11-231.07-149.45c-102.99-34.32-232.32-51.5-388.05-51.5
	c-31.85,0-85.43,0.85-160.77,2.52c-75.37,1.67-153.23,2.5-233.58,2.5c-70.33,0-141.09-0.83-212.23-2.5
	c-71.18-1.67-127.7-3.34-169.54-5.04c31.43,6.7,104.55,26.97,151.26,89.65c12.97,17.4,21.26,33.27,23.28,39.71
	c9.21,29.33,13.82,74.96,13.82,136.9v1245.82c0,60.3-4.61,105.48-13.82,135.63c-1.97,6.47-11.44,24.58-27.45,44.65
	c-47.08,59.04-114.97,78.94-147.09,85.95c41.84-3.34,98.35-5.42,169.54-6.28c71.14-0.82,146.92-1.26,227.3-1.26
	c70.33,0,139.8,0.45,208.45,1.26c68.65,0.86,125.61,2.94,170.83,6.28c-32.08-6.98-100.04-26.85-147.14-85.95
	c-15.99-20.06-25.46-38.16-27.44-44.65c-9.21-30.15-13.81-75.33-13.81-135.63V1367.74c0-87.07,9.61-144.84,28.88-173.32
	c19.23-28.45,61.53-42.7,126.83-42.7c113.85,0,194.23,36.43,241.13,109.27c46.86,72.85,70.33,175.44,70.33,307.7
	c0,77.01-9.65,146.92-28.88,209.71c-17.37,56.73-47.74,103.21-91.1,139.42c0,0-6.84,5.73-14.39,11.29
	c-22.38,16.5-90.04,47.16-183.18,80.27c72.11,17.96,112.39,48.5,135.47,72.96c0.33,0.35,2.03,2.15,4.26,4.64
	c27.28,30.47,48.88,70.8,64.8,120.94c16.75,52.72,30.96,114.28,42.7,184.61l45.22,251.15c18.42,103.82,56.92,175,115.52,213.49
	c58.59,38.51,133.11,57.78,223.55,57.78c66.47,0,126.71,3.81,188.4-33.9c71.48-43.7,100.45-113.31,110.49-141.92
	C-1993.13,2757.55-2008.61,2771.36-2022.83,2780.57z"/>
<g>
	<path class="st0" d="M-1529.14,2910.48V1139.02h250.1c43.7,0,74.19,8.1,91.42,24.26c17.24,16.16,28.76,43.84,34.52,83.08
		l25.9,214.64c63.23-109.64,137.37-196.19,222.51-259.7c85.1-63.51,180.55-95.26,286.35-95.26c87.39,0,159.85,20.56,217.36,61.59
		l-55.22,319.22c-3.47,20.7-10.91,35.41-22.43,44.02c-11.52,8.62-27.02,12.93-46.55,12.93c-17.24,0-40.84-3.98-70.72-12.04
		c-22.21-5.99-54.25-8.79-119.01-12.08c-81.37-4.14-189.06-9.62-269.57,45.76c-109.8,75.53-117.62,228.89-118.6,259.41v1085.62
		H-1529.14z"/>
</g>
<g>
	<path class="st0" d="M1826.98,595.52c0,27.82-3.66,58.3-10.99,91.46c-7.32,33.16-14.38,49.73-21.17,49.73
		c-5.36,0-8.04-2.68-8.04-8.04c0-1.61,0.54-4,1.61-7.21c14.29-37.45,21.44-77.84,21.44-121.18c0-67.39-20.12-121.56-60.33-162.49
		c-40.22-40.91-93.29-61.38-159.25-61.38c-90.64,0-182.34,29.16-275.1,87.46c79.22,63.15,118.84,131.65,118.84,205.48
		c0,62.61-25.12,116-75.32,160.15c-50.2,44.15-116.29,71.3-198.29,81.46c55.69,32.13,83.53,78.71,83.53,139.76
		c0,40.71-14.36,102.56-43.03,185.56c-18.96,54.62-28.43,97.47-28.43,128.53c0,32.13,11.59,59.31,34.79,81.52
		c23.18,22.22,51.51,33.34,84.96,33.34c34.52,0,67.14-11.21,97.91-33.58c7.01-4.29,11.86-6.41,14.56-6.41
		c4.26,0,6.41,2.12,6.41,6.41c0,9-15.07,19.47-45.17,31.42c-30.12,11.9-56.2,17.89-78.24,17.89c-51.67,0-94.97-20.5-129.93-61.5
		c-34.97-41-52.45-91.77-52.45-152.33c0-43.94,19.43-121.38,58.3-232.32c9.71-28.4,14.58-52.52,14.58-72.35
		c0-25.19-10.41-46.62-31.17-64.31c-34.12,3.22-53.57,4.82-58.35,4.82c-52.74,0-79.11-6.7-79.11-20.1
		c0-8.55,13.33-12.84,40.04-12.84c31.48,0,62.99,6.16,94.5,18.47c63.53-10.16,115.58-39.72,156.15-88.69s60.87-106.62,60.87-172.99
		c0-52.43-20.16-102.74-60.47-150.9l-7.95-10.43c-117.23,87.82-228.01,240.96-332.35,459.38
		c-63.17,132.26-120.98,227.56-173.43,285.93s-126.03,111.09-220.75,158.2c-111.87,54.62-211.68,81.93-299.46,81.93
		c-71.72,0-131.39-16.46-179.01-49.37c-47.65-32.91-71.45-73.98-71.45-123.24c0-27.29,8.17-50.82,24.54-70.63
		s35.79-29.72,58.3-29.72c32.65,0,48.99,18.22,48.99,54.66c0,18.22-5.49,33.76-16.48,46.62c-10.99,12.86-24.5,19.29-40.55,19.29
		c-27.87,0-41.24-14.47-40.17-43.41c0.54-11.79-0.54-17.68-3.19-17.68c-8.57,0-12.86,14.2-12.86,42.6
		c0,44.48,21.79,81.46,65.43,110.93c43.61,29.47,98.58,44.21,164.95,44.21c117.18,0,223.43-43.39,318.69-130.16
		c41.73-38,77.33-76.84,106.76-116.49c32.11-42.83,102.2-146.75,210.32-311.72c54.04-81.41,117.72-163.07,191.05-245.02
		c73.31-81.95,135.65-140.59,187.03-175.96c-83.51-71.16-206.1-106.76-367.74-106.76c-225.91,0-422.36,81.64-589.36,244.86
		c-137.04,133.8-205.54,259.85-205.54,378.1c0,59.95,19.27,107.58,57.81,142.91c38.54,35.33,90.72,52.99,156.57,52.99
		c107.58,0,218.81-51.69,333.62-155.12c114.82-103.41,172.25-203.87,172.25-301.4c0-77.68-39.88-116.54-119.62-116.54
		c-79.76,0-165.28,44.68-256.54,134.04S323.59,916.62,323.59,995c0,19.34,6.41,35.97,19.27,49.91
		c12.84,13.96,27.82,20.92,44.97,20.92c9.09,0,13.64,2.43,13.64,7.26c0,4.29-5.07,6.43-15.21,6.43c-25.63,0-47.25-11.66-64.84-34.99
		C303.8,1021.19,295,992.61,295,958.8c0-83.69,45.78-165.24,137.33-244.64s185.51-119.1,281.89-119.1
		c92.09,0,138.13,42.58,138.13,127.72c0,103.9-58.66,208.87-175.96,314.89S443.4,1196.7,329.35,1196.7
		c-74.45,0-134.04-22.35-178.77-67.06c-44.73-44.7-67.08-104.52-67.08-179.51c0-151.5,85.5-289.77,256.52-414.79
		c171.02-125,360.11-187.52,567.26-187.52c157.38,0,289.59,35.21,396.64,105.62c98.03-60.87,192.84-91.33,284.43-91.33
		c71.77,0,129.49,21.39,173.14,64.17S1826.98,525.48,1826.98,595.52z"/>
</g>
</svg>
